<svg version="1.1" xmlns="http://www.w3.org/2000/svg" xmlns:xlink="http://www.w3.org/1999/xlink" viewBox="0 0 256 256">
  <path d="M14,24.9c-1.2,0.6-2.4,1.8-3,3c-1,1.9-1,7.9-1,100.2c0,92.3,0.1,98.3,1,100.2c0.6,1.2,1.8,2.4,3,3c1.9,1,8.5,1,114,1s112.1-0.1,114-1c1.2-0.6,2.4-1.8,3-3c1-1.9,1-7.9,1-100.2c0-92.3-0.1-98.3-1-100.2c-0.6-1.2-1.8-2.4-3-3c-1.9-1-8.5-1-114-1S15.9,23.9,14,24.9z M231.9,58.6v20.7H128H24.1l-0.2-20.1c-0.1-11.1,0-20.5,0.2-20.8c0.2-0.6,21.1-0.7,104-0.6l103.8,0.2V58.6z M232.1,155.7l-0.2,62.3H128H24.1l-0.2-62.3l-0.1-62.3H128h104.2L232.1,155.7z"/><path fill="#000000" d="M207.1,55l-1.1,1.3l1.3-1.1c0.7-0.6,1.3-1.2,1.3-1.3C208.6,53.5,208.1,53.8,207.1,55z"/><path fill="#000000" d="M138.2,108.3c-0.9,0.5-2,1.7-2.4,2.7c-0.4,0.9-7.1,20.6-14.7,43.6c-15,45-14.8,44.4-12,47.4c2.7,2.9,7.9,2.8,10.2-0.1c1.3-1.7,29.4-85.6,29.4-87.9C148.7,108.8,142.7,105.5,138.2,108.3z"/><path fill="#000000" d="M61.7,136.1c-21.5,14.4-22.7,15.3-23.5,17.6c-0.7,2.1-0.7,2.5,0.3,4.6c1,2,3.9,4.1,23.3,17c19.3,13,22.4,14.9,24.3,14.9c3,0,5.2-1.3,6.4-3.7s1.2-3.3,0.1-5.8c-0.7-1.6-3.6-3.8-17.8-13.3c-9.4-6.3-17-11.5-17-11.7c0-0.2,7.6-5.4,16.9-11.6c14.3-9.6,17-11.6,17.9-13.4c0.9-1.9,1-2.6,0.4-4.4c-0.9-3-2.9-4.7-6-5.1C84.5,121,84.2,121.1,61.7,136.1z"/><path fill="#000000" d="M166.6,121.8c-1.8,0.9-4,4.2-4,6.1c0,3.3,1.9,5,18.9,16.3c9.2,6.1,16.7,11.3,16.7,11.5c0,0.2-7.7,5.4-17,11.7c-14.3,9.5-17.2,11.7-17.8,13.3c-1,2.5-1,3.4,0.1,5.8c1.2,2.4,3.4,3.7,6.4,3.7c1.9,0,5.1-1.9,24.3-14.9c24.9-16.6,25-16.8,23.5-21.6c-0.7-2.4-1.4-2.8-23.4-17.6C170.5,120.3,170.1,120.1,166.6,121.8z"/>
</svg>