<?xml version="1.0" encoding="UTF-8"?>
<svg version="1.1" xmlns="http://www.w3.org/2000/svg" width="1024" height="1024">
  <rect width="1024" height="1024" fill="#121212" />

  <!-- bulb dome -->
  <path fill="#66B2FF" d="M0 0 C0.76842224 -0.00139984 1.53684448 -0.00279968 2.32855225 -0.00424194 C53.22741899 0.07099997 100.24634186 18.76371674 138.9375 51.4375 C140.1440625 52.44490234 140.1440625 52.44490234 141.375 53.47265625 C152.31855413 62.80556632 161.8319067 73.48136688 170.5625 84.875 C171.1090625 85.57431641 171.655625 86.27363281 172.21875 86.99414062 C175.98178451 91.89598821 179.08114006 96.95973618 181.9375 102.4375 C171.9375 112.4375 171.9375 112.4375 170.08984375 114.25 C166.04464426 118.24063996 162.22299939 122.34233703 158.5078125 126.640625 C155.1240751 130.51256332 151.39650966 133.92078031 147.5519104 137.32237244 C141.29191152 142.95122898 135.36042045 148.88156466 129.41943359 154.84204102 C128.19651435 156.06524298 126.97337358 157.2882235 125.75003052 158.51100159 C122.45922961 161.80151785 119.17150158 165.09508843 115.88435316 168.3892529 C112.43753724 171.84235813 108.98785261 175.29259517 105.53848267 178.7431488 C99.02026592 185.26446252 92.50460051 191.78831911 85.98986781 198.31311315 C78.56734224 205.74685084 71.14194654 213.17771881 63.71631885 220.60835755 C48.45353661 235.88156713 33.19432827 251.15834299 17.9375 266.4375 C14.37823884 265.25107961 13.7338255 264.19480652 11.5 261.25 C8.14763706 256.93981908 4.69182166 252.75693068 1.125 248.625 C0.0910832 247.42453311 -0.94277057 246.22401193 -1.9765625 245.0234375 C-2.48993164 244.42756836 -3.00330078 243.83169922 -3.53222656 243.21777344 C-5.94990118 240.40512454 -8.35264173 237.57997381 -10.75 234.75 C-11.20479736 234.21342773 -11.65959473 233.67685547 -12.12817383 233.12402344 C-14.98473577 229.7429763 -17.78350529 226.32036112 -20.5625 222.875 C-24.21049719 218.3866606 -28.05002593 214.13191925 -31.99194336 209.90454102 C-34.85878858 206.81140509 -37.52935094 203.63452444 -40.125 200.3125 C-44.45456005 194.95916312 -49.17502209 190.03365377 -54 185.125 C-54.73935791 184.35978027 -55.47871582 183.59456055 -56.24047852 182.80615234 C-65.47118508 173.54403848 -75.77785819 167.72397594 -89.0625 167.0625 C-90.39935015 167.14145856 -91.7337768 167.27047476 -93.0625 167.4375 C-94.29419922 167.58251953 -94.29419922 167.58251953 -95.55078125 167.73046875 C-106.18106099 169.68596973 -115.02505741 175.82322639 -124.0625 181.4375 C-124.93616211 181.97777832 -125.80982422 182.51805664 -126.70996094 183.07470703 C-136.1704059 188.75551515 -136.1704059 188.75551515 -145.17993164 195.09570312 C-147.0625 196.4375 -147.0625 196.4375 -149.0625 196.4375 C-149.3925 197.4275 -149.7225 198.4175 -150.0625 199.4375 C-150.784375 200.118125 -151.50625 200.79875 -152.25 201.5 C-158.36426817 207.41875378 -162.14127896 215.01895695 -163.0625 223.4375 C-163.15660156 224.24445313 -163.25070312 225.05140625 -163.34765625 225.8828125 C-164.50908615 245.83558266 -152.01781588 260.05298643 -139.8359375 274.171875 C-137.03856548 277.43319186 -134.38484685 280.79434076 -131.75 284.1875 C-126.95815778 290.35042852 -122.02095401 296.38354948 -117.04589844 302.39916992 C-113.38337179 306.82901103 -109.76023144 311.28551528 -106.18359375 315.78515625 C-103.33054033 319.35278658 -100.44599326 322.89445613 -97.5625 326.4375 C-93.42024334 331.52830233 -89.29755026 336.6331001 -85.20703125 341.765625 C-82.40655287 345.2547456 -79.57678178 348.71968102 -76.75 352.1875 C-72.59001236 357.29130506 -68.48277495 362.429877 -64.4375 367.625 C-60.47781677 372.70610445 -56.38334206 377.6465176 -52.19140625 382.53710938 C-48.82634861 386.48218408 -45.61530168 390.52824241 -42.4375 394.625 C-29.81916831 410.74351645 -16.04854919 424.00100557 5.09765625 427.15625 C21.19012226 428.75000179 35.59885334 425.68984745 48.9375 416.4375 C51.55639899 414.28470615 53.99555084 411.97134956 56.43359375 409.6171875 C57.51093025 408.58980721 57.51093025 408.58980721 58.61003113 407.54167175 C68.09157302 398.44886229 77.37505176 389.15090363 86.65356445 379.85180664 C89.26450099 377.23508249 91.88002888 374.62300006 94.49681568 372.01212788 C96.53956636 369.97299348 98.5799266 367.93148061 100.61957359 365.88924217 C102.04734992 364.46048637 103.47711898 363.03372283 104.90693665 361.60700989 C105.77271835 360.73807602 106.63850006 359.86914215 107.53051758 358.97387695 C108.28754471 358.21605423 109.04457184 357.45823151 109.82453918 356.67744446 C111.99477814 354.4411703 111.99477814 354.4411703 113.97917175 351.86064148 C115.76034554 349.65670244 117.50878256 347.93796832 119.67773438 346.13085938 C124.03238277 342.40282975 128.06595229 338.41935126 132.09375 334.34375 C133.21360291 333.21821716 133.21360291 333.21821716 134.3560791 332.06994629 C136.71902025 329.6949008 139.0786737 327.31663183 141.4375 324.9375 C144.54910646 321.79910783 147.66413755 318.66417255 150.78125 315.53125 C151.83004333 314.47000916 151.83004333 314.47000916 152.90002441 313.3873291 C156.79225412 309.47603238 160.79358254 305.77950336 164.97146606 302.17645264 C168.29963707 299.2326928 171.41476161 296.08300497 174.54296875 292.9296875 C175.23006424 292.24117706 175.91715973 291.55266663 176.62507629 290.84329224 C178.79410616 288.66872673 180.95961678 286.49069614 183.125 284.3125 C184.58765629 282.84481851 186.05054504 281.37736866 187.51367188 279.91015625 C190.196996 277.21871351 192.87898864 274.52595991 195.55932617 271.83154297 C198.34751279 269.02896338 201.14060934 266.23139221 203.9375 263.4375 C200.69081336 294.11309101 185.96258557 320.8753003 167.97265625 345.2890625 C164.80029126 349.59769496 161.80857502 354.0073029 158.87890625 358.484375 C157.49067041 360.59605768 156.08613375 362.68552749 154.65234375 364.765625 C144.36414213 379.77062852 134.94736947 395.62105653 127.9375 412.4375 C127.61297852 413.21528809 127.28845703 413.99307617 126.95410156 414.79443359 C120.91410651 429.48608353 116.37563628 444.32028558 113.83666992 460.01489258 C112.4398123 468.51050161 110.47609611 475.54959868 103.7578125 481.3046875 C97.23104755 485.89759617 91.42209441 487.68453099 83.40507507 487.70492554 C82.66717564 487.70945665 81.92927621 487.71398776 81.16901618 487.71865618 C78.70725818 487.73127205 76.24572221 487.72968165 73.78393555 487.72802734 C72.01442176 487.73401436 70.24491059 487.74082031 68.47540283 487.74838257 C63.67570613 487.76603233 58.87608076 487.77073753 54.07635474 487.77201414 C51.07547564 487.7734369 48.07461461 487.77770889 45.07374001 487.78300858 C34.59838334 487.80150564 24.12307753 487.80967961 13.64770508 487.80810547 C3.89333117 487.80690424 -5.8608214 487.82800387 -15.61513931 487.8595928 C-23.99835699 487.88577104 -32.38150245 487.89647211 -40.76476067 487.89519465 C-45.76787264 487.89468546 -50.77078788 487.90034474 -55.77385902 487.92155075 C-60.48123934 487.94095914 -65.18823578 487.94103983 -69.89562988 487.92651749 C-71.6189092 487.9244315 -73.34221271 487.92911772 -75.06545067 487.9412384 C-91.41798963 488.04876637 -91.41798963 488.04876637 -99.0625 483.4375 C-99.949375 483.045625 -100.83625 482.65375 -101.75 482.25 C-107.09707313 478.05905079 -110.02390786 472.51820111 -111.5390625 465.96875 C-111.78833496 464.91502197 -112.03760742 463.86129395 -112.29443359 462.77563477 C-112.54789551 461.67405029 -112.80135742 460.57246582 -113.0625 459.4375 C-116.86884035 443.38151268 -120.79076338 427.7212397 -127.0625 412.4375 C-127.39475586 411.60734375 -127.72701172 410.7771875 -128.06933594 409.921875 C-138.34738314 384.32733435 -152.71145387 362.19686648 -168.9375 340 C-203.01638897 293.24118849 -220.49830963 237.53101974 -211.47314453 179.73925781 C-211.04311131 177.29521171 -210.56783228 174.86703898 -210.0625 172.4375 C-209.89089355 171.60734375 -209.71928711 170.7771875 -209.54248047 169.921875 C-201.18106094 130.94675054 -182.63390374 96.16892012 -155.0625 67.4375 C-154.47726562 66.8197168 -153.89203125 66.20193359 -153.2890625 65.56542969 C-113.49506845 23.72807183 -57.74074983 -0.0102235 0 0 Z " transform="translate(511.0625,191.5625)"/>

  <!-- checkmark -->
  <path fill="#E6F2FF" d="M0 0 C1.47726562 -0.05994141 1.47726562 -0.05994141 2.984375 -0.12109375 C10.52011173 1.16791385 16.13931831 6.80892289 21.5 11.9375 C22.4595459 12.84737671 22.4595459 12.84737671 23.43847656 13.77563477 C27.72417273 17.88001301 31.92115681 22.06489529 36 26.375 C36.73331543 27.13490234 36.73331543 27.13490234 37.48144531 27.91015625 C41.61958171 32.39142656 44.67532329 37.478994 44.6875 43.75 C44.0233052 58.82211277 31.40547476 68.44188343 21.4296875 78.3203125 C20.52678986 79.21942352 19.62389221 80.11853455 18.69363403 81.04489136 C15.83986604 83.88656411 12.98296526 86.7250505 10.125 89.5625 C6.34846257 93.31200082 2.57564797 97.06520048 -1.1953125 100.8203125 C-2.04964874 101.6663504 -2.90398499 102.51238831 -3.78421021 103.38406372 C-8.19260078 107.77450531 -12.40152911 112.22203058 -16.35934448 117.02560425 C-16.8182608 117.49152985 -17.27717712 117.95745544 -17.75 118.4375 C-18.41 118.4375 -19.07 118.4375 -19.75 118.4375 C-20.14485344 119.32082001 -20.14485344 119.32082001 -20.54768372 120.22198486 C-21.80466455 122.53823068 -23.11661913 124.03941459 -24.98706055 125.88574219 C-25.97400154 126.86761505 -25.97400154 126.86761505 -26.98088074 127.86932373 C-27.69230728 128.56729065 -28.40373383 129.26525757 -29.13671875 129.984375 C-29.87195267 130.71440735 -30.60718658 131.4444397 -31.36470032 132.19659424 C-33.7176025 134.53169488 -36.07705672 136.86002447 -38.4375 139.1875 C-40.77926472 141.50149867 -43.11950514 143.8169862 -45.45674133 146.13555908 C-46.90979808 147.57652375 -48.36551808 149.01480974 -49.8243866 150.44989014 C-53.87438081 154.46062456 -57.67256289 158.57799053 -61.30647278 162.97149658 C-61.78283676 163.45527771 -62.25920074 163.93905884 -62.75 164.4375 C-63.41 164.4375 -64.07 164.4375 -64.75 164.4375 C-64.75 165.0975 -64.75 165.7575 -64.75 166.4375 C-69.05232558 171.20494186 -69.05232558 171.20494186 -72.75 172.4375 C-73.02006866 172.99066422 -73.29013733 173.54382845 -73.56838989 174.11375523 C-75.30015952 177.51943922 -77.97592506 179.94883765 -80.65576172 182.61741638 C-81.26703132 183.23392266 -81.87830091 183.85042894 -82.50809383 184.48561722 C-84.56052782 186.55306954 -86.62006535 188.61329431 -88.6796875 190.67358398 C-90.15181779 192.1533347 -91.62354365 193.63348785 -93.09489441 195.11401367 C-97.09650703 199.13759418 -101.10469477 203.15456146 -105.11476517 207.16971087 C-107.6208091 209.67939676 -110.12554934 212.19037634 -112.62985229 214.70179939 C-121.36974002 223.46619304 -130.11534477 232.22484 -138.86572266 240.97875977 C-147.01633119 249.13300072 -155.15372574 257.30026709 -163.28517151 265.4736132 C-170.27005542 272.49322165 -177.26456053 279.50314649 -184.26647949 286.50576264 C-188.44671107 290.6867865 -192.62288429 294.87167684 -196.78924561 299.06652641 C-200.71146498 303.01496163 -204.64554227 306.95118846 -208.58889198 310.87851715 C-210.0306991 312.31851243 -211.46827851 313.76275573 -212.90117455 315.21161842 C-230.47767118 332.97189288 -230.47767118 332.97189288 -242.87841797 333.13183594 C-243.66104004 333.10895508 -244.44366211 333.08607422 -245.25 333.0625 C-246.07516113 333.04993164 -246.90032227 333.03736328 -247.75048828 333.02441406 C-254.33746077 332.77241788 -259.34758081 331.33358428 -264.75 327.4375 C-265.636875 326.86 -266.52375 326.2825 -267.4375 325.6875 C-270.11890377 323.07856661 -272.30030863 320.28222171 -274.5546875 317.30078125 C-277.26181808 313.76995079 -280.06312311 310.32262001 -282.875 306.875 C-283.71321289 305.84584473 -283.71321289 305.84584473 -284.56835938 304.79589844 C-285.72138896 303.38045974 -286.87471228 301.96526026 -288.02832031 300.55029297 C-291.31354978 296.51875925 -294.59079435 292.48073471 -297.86914062 288.44360352 C-300.59947688 285.08202074 -303.33232803 281.72254486 -306.0703125 278.3671875 C-311.61986243 271.56095046 -317.11546577 264.72136252 -322.51611328 257.79638672 C-326.76487124 252.37175629 -331.15580024 247.06846711 -335.55175781 241.76293945 C-339.24977477 237.28951549 -342.87496561 232.76937226 -346.4375 228.1875 C-350.37649191 223.12308183 -354.45278968 218.2038077 -358.62573242 213.33105469 C-361.93852295 209.44445517 -365.11669546 205.46977182 -368.25 201.4375 C-371.88093555 196.7655451 -375.59713492 192.18900976 -379.4375 187.6875 C-397.29713617 166.7175842 -397.29713617 166.7175842 -397.08203125 154.80859375 C-396.38908392 149.86013455 -393.85672622 146.05708953 -389.9128418 143.02514648 C-388.87897339 142.36107788 -388.87897339 142.36107788 -387.82421875 141.68359375 C-386.63107056 140.91245239 -386.63107056 140.91245239 -385.41381836 140.12573242 C-384.5347583 139.56861572 -383.65569824 139.01149902 -382.75 138.4375 C-381.31442749 137.51964722 -381.31442749 137.51964722 -379.84985352 136.58325195 C-376.74114542 134.60516396 -373.62200677 132.64452148 -370.5 130.6875 C-369.4378125 130.01589844 -368.375625 129.34429687 -367.28125 128.65234375 C-366.25515625 128.00910156 -365.2290625 127.36585938 -364.171875 126.703125 C-363.24987305 126.12336914 -362.32787109 125.54361328 -361.37792969 124.94628906 C-356.83402462 122.33746954 -353.1858347 121.13128551 -347.9375 121.0625 C-346.96167969 121.03414063 -345.98585938 121.00578125 -344.98046875 120.9765625 C-336.7088096 122.15679924 -331.70145211 126.96485492 -326.3125 133 C-325.65781738 133.71599365 -325.00313477 134.4319873 -324.32861328 135.16967773 C-320.07569635 139.85567442 -315.99311598 144.65783203 -312.046875 149.60546875 C-309.23210029 153.07606682 -306.31095286 156.44435104 -303.375 159.8125 C-297.89189142 166.11007352 -292.46444081 172.45007047 -287.09375 178.84375 C-285.68369898 180.51613609 -284.26421841 182.18020678 -282.84375 183.84375 C-281.91649647 184.93735572 -280.98940704 186.03110059 -280.0625 187.125 C-279.23363281 188.09824219 -278.40476562 189.07148438 -277.55078125 190.07421875 C-275.75 192.4375 -275.75 192.4375 -275.75 194.4375 C-275.09 194.4375 -274.43 194.4375 -273.75 194.4375 C-272.19140625 196.16796875 -272.19140625 196.16796875 -270.3125 198.625 C-266.52637247 203.48397902 -262.6051222 208.19721521 -258.60766602 212.8815918 C-250.75 222.10580842 -250.75 222.10580842 -250.75 224.4375 C-250.09 224.4375 -249.43 224.4375 -248.75 224.4375 C-246.89705197 226.63857766 -245.36452017 229.05820712 -243.75 231.4375 C-237.74076558 226.42850226 -232.2734438 221.02808141 -226.79882812 215.44726562 C-226.13431641 214.77501953 -225.46980469 214.10277344 -224.78515625 213.41015625 C-224.2012915 212.81468994 -223.61742676 212.21922363 -223.01586914 211.60571289 C-221.09667052 209.76922944 -219.13929912 208.04167027 -217.12503719 206.31238651 C-212.72817575 202.47235026 -208.59598934 198.41167121 -204.48353577 194.27110291 C-203.6908413 193.47714617 -202.89814684 192.68318943 -202.08143133 191.8651734 C-199.44390711 189.2223009 -196.80998974 186.57586337 -194.17602539 183.92944336 C-192.2783806 182.02660162 -190.38052589 180.12397165 -188.4823761 178.22163391 C-184.40387813 174.13345879 -180.32706197 170.04361295 -176.25123787 165.95277214 C-169.80396012 159.48203575 -163.35142205 153.0165588 -156.89805603 146.55189514 C-154.68634935 144.33618783 -152.47467677 142.12044648 -150.26301479 139.90469456 C-149.7104264 139.35108694 -149.15783801 138.79747931 -148.58850451 138.2270957 C-142.30983186 131.93669909 -136.03224053 125.64522386 -129.75512695 119.35327148 C-128.89518526 118.49130115 -128.89518526 118.49130115 -128.01787101 117.61191726 C-118.7227073 108.29456111 -109.43139432 98.97337224 -100.14104194 89.65121906 C-90.58747082 80.0652278 -81.02811744 70.48502822 -71.46382707 60.90973192 C-65.57263718 55.01133244 -59.68621447 49.10825552 -53.80590474 43.19900883 C-49.77517677 39.14924236 -45.73897029 35.10499007 -41.69846732 31.06497639 C-39.37045356 28.73689979 -37.04577352 26.40565957 -34.72601318 24.06935501 C-32.20540492 21.53152487 -29.67563758 19.00318053 -27.14344788 16.47691345 C-26.42027644 15.74432137 -25.697105 15.01172929 -24.95201927 14.25693744 C-18.09378373 7.45203764 -10.05640034 0.22144923 0 0 Z " transform="translate(769.75,263.5625)"/>

  <!-- bulb base -->
  <path fill="#003366" d="M0 0 C1.06987389 -0.00573832 1.06987389 -0.00573832 2.1613614 -0.01159257 C4.54565329 -0.0218916 6.92970298 -0.01793633 9.31401062 -0.01396179 C11.02588625 -0.01831005 12.73775994 -0.02349358 14.44963074 -0.02944946 C19.09643976 -0.04284016 23.74316744 -0.04341793 28.389992 -0.04088616 C32.27157819 -0.03981625 36.15314794 -0.04470046 40.03473061 -0.04949158 C49.19473099 -0.06058754 58.35469037 -0.06102402 67.51469421 -0.05497742 C76.95718045 -0.04894003 86.39951758 -0.06124248 95.84197837 -0.08254749 C103.95424864 -0.10017665 112.06647151 -0.10616267 120.17876023 -0.10290974 C125.02140905 -0.10109845 129.86395158 -0.10371748 134.70658302 -0.11762428 C139.2628793 -0.13021897 143.81894371 -0.12824299 148.37523651 -0.11521339 C150.04410315 -0.11285144 151.7129862 -0.11556863 153.38183403 -0.12383652 C171.94142696 -0.20912848 171.94142696 -0.20912848 177.30881214 4.60641003 C181.9025617 9.71535056 183.25079068 14.35587226 183.05107117 21.05757141 C182.38623805 27.10540819 178.96028267 30.35788277 174.52763367 34.06147766 C170.76393762 36.68751104 167.13982632 36.39336235 162.69969177 36.40786743 C161.97111159 36.41154412 161.2425314 36.41522081 160.49187303 36.41900891 C158.04382521 36.43004604 155.59581983 36.43388963 153.14775085 36.43769836 C151.39514023 36.44396298 149.64253093 36.45060978 147.8899231 36.45761108 C142.12854437 36.47865353 136.36716536 36.48901341 130.60575867 36.49897766 C128.62258643 36.5030251 126.63941432 36.50714202 124.65624237 36.51132774 C115.33959196 36.53037955 106.02294948 36.54461079 96.70628333 36.55293971 C85.95085415 36.56271354 75.19563069 36.58903693 64.440274 36.62944061 C56.12764458 36.65959662 47.81507416 36.67440809 39.5023911 36.67772073 C34.53729074 36.68007175 29.57241017 36.68903902 24.60736847 36.7141819 C19.93534367 36.73745868 15.26368343 36.74169744 10.59161568 36.73142052 C8.87878011 36.73092495 7.16592663 36.73725144 5.45314598 36.75097656 C3.11033183 36.76869689 0.76882586 36.76158975 -1.57398987 36.7484436 C-2.88364841 36.75083196 -4.19330696 36.75322031 -5.54265213 36.75568104 C-10.90302627 36.02844277 -15.75711989 33.59837613 -19.19111633 29.26069641 C-22.38774464 24.10331096 -21.78062734 18.10486107 -21.19111633 12.26069641 C-18.74141773 7.08911046 -15.11137561 3.70461225 -9.98040485 1.16761494 C-6.5361675 0.04774417 -3.6234664 0.00583179 0 0 Z " transform="translate(432.1911163330078,702.7393035888672)"/>
  <path fill="#003366" d="M0 0 C0.677054 -0.00297112 1.35410799 -0.00594224 2.05167878 -0.0090034 C4.31930597 -0.01767176 6.58688026 -0.01919706 8.85452271 -0.02069092 C10.48082593 -0.02532035 12.10712807 -0.03034518 13.73342896 -0.03573608 C18.15080904 -0.04884856 22.56817393 -0.05530259 26.98557043 -0.05974674 C29.74553093 -0.06267884 32.50548729 -0.06678388 35.26544571 -0.07125092 C43.90132467 -0.08492175 52.53719415 -0.09459088 61.17308319 -0.09845281 C71.14119211 -0.10293509 81.10916403 -0.12049259 91.07723129 -0.1494534 C98.7835019 -0.17106576 106.48973395 -0.18115682 114.19603455 -0.18249393 C118.79831405 -0.18354211 123.40046466 -0.18945309 128.00271225 -0.20731354 C132.33162425 -0.22378689 136.66031038 -0.22595334 140.98924255 -0.21717453 C142.57671336 -0.21640381 144.16419627 -0.22075156 145.75163651 -0.23063278 C147.92160707 -0.24334648 150.09077689 -0.23747939 152.26074219 -0.22705078 C154.08086476 -0.22925062 154.08086476 -0.22925062 155.93775749 -0.2314949 C161.2928682 0.36850642 165.18351594 2.47825728 168.56985474 6.64044189 C169.06098755 7.22825439 169.55212036 7.81606689 170.05813599 8.42169189 C173.10670105 12.79097081 172.91388369 18.04668278 172.25735474 23.14044189 C169.89642641 29.35508282 166.18771373 32.44482417 160.25735474 35.14044189 C157.48579664 35.9777842 155.03781866 36.25999086 152.14797974 36.23809814 C151.39387817 36.23487549 150.63977661 36.23165283 149.86282349 36.22833252 C149.0855188 36.21995361 148.30821411 36.21157471 147.50735474 36.20294189 C146.7145813 36.19843018 145.92180786 36.19391846 145.10501099 36.18927002 C143.15575965 36.17752754 141.20654736 36.15959335 139.25735474 36.14044189 C138.92671021 37.18458252 138.92671021 37.18458252 138.58938599 38.24981689 C132.40788466 51.6642186 116.51778887 62.16444778 103.24954224 67.14434814 C102.26212036 67.47305908 101.27469849 67.80177002 100.25735474 68.14044189 C99.31118286 68.45884033 98.36501099 68.77723877 97.39016724 69.10528564 C78.57756833 74.40701806 57.19253187 72.11276012 40.06204224 62.82794189 C30.44026507 57.03879463 20.82391765 50.09066706 15.58157349 39.87481689 C13.61747982 37.03146425 13.61747982 37.03146425 11.290802 36.6350708 C8.84702929 36.46639158 6.45614675 36.45507106 4.00735474 36.51544189 C-2.80396873 36.62237005 -8.0053434 36.09264003 -13.74264526 32.14044189 C-18.09746207 27.91008729 -19.91886785 24.55521729 -20.11764526 18.51544189 C-20.07388104 12.43950833 -18.73379164 8.6919498 -14.74264526 4.14044189 C-10.29907979 -0.03381658 -5.91354844 0.01450596 0 0 Z" transform="translate(435.7426452636719,758.8595581054688)"/>
</svg>
