<svg width="329" height="329" viewBox="0 0 329 329" fill="none" xmlns="http://www.w3.org/2000/svg">
<path fill="#000" transform="translate(0 20)" d="M255.031 101.465C248.497 92.3992 233.474 73.7584 210.396 46.0667C200.378 34.0554 191.785 23.8602 187.555 18.8549C185.222 16.0938 183.221 13.7314 181.642 11.8637L179.124 8.8959L177.758 7.28652L177.493 6.89524L177.374 6.84357L171.55 0L164.167 5.92076C145.32 21.0179 129.883 40.4782 119.54 62.1679C113.199 75.0725 109.057 87.6892 106.886 100.682C106.318 103.606 105.831 106.611 105.425 109.623C102.893 109.416 100.316 109.283 97.7617 109.224C97.5476 109.209 97.3336 109.202 97.0456 109.194C87.692 108.87 78.3901 109.984 69.4056 112.516L65.5593 113.594L63.5808 117.064C54.3084 133.328 49.0595 151.843 48.4024 170.602C47.5534 194.964 54.1903 218.544 67.5969 238.794C80.7156 258.601 99.2456 273.743 121.186 282.579L124.043 283.731L124.907 284.034L124.944 284.019C136.372 288.168 148.369 290.486 160.601 290.907C161.989 290.959 163.37 290.981 164.75 290.981C180.187 290.981 195.218 287.961 209.481 281.989L209.584 282.033L213.379 280.276C232.618 271.38 249.081 257.398 260.989 239.835C273.236 221.77 280.117 200.634 280.884 178.715C281.8 152.515 273.096 126.528 255.023 101.472L255.031 101.465ZM169.15 182.643C173.13 197.725 172.347 212.217 166.84 225.779C153.079 212.195 142.987 197.26 136.83 181.343C130.237 164.319 126.273 148.122 125.018 133.143C130.843 135.055 136.195 137.58 140.964 140.688C154.681 149.628 164.167 163.744 169.15 182.65V182.643ZM171.66 255.656C177.507 260.107 183.657 264.278 189.999 268.117C180.66 270.657 171.026 271.772 161.281 271.425C159.775 271.373 158.269 271.284 156.755 271.159C162.307 266.375 167.297 261.185 171.653 255.656H171.66ZM187.991 177.674C181.73 153.947 169.483 136.008 151.595 124.358C143.747 119.249 134.807 115.374 124.988 112.841C125.129 111.21 125.306 109.586 125.513 107.991C125.69 106.625 125.874 105.37 126.074 104.196C127.69 95.8468 130.097 87.5858 133.212 79.6497C134.408 76.6081 135.715 73.5886 137.103 70.6726L137.155 70.5692C139.296 66.2357 141.71 61.8579 144.552 57.1774L145.667 55.3391L145.63 55.317C152.23 45.0036 160.136 35.5984 169.18 27.3078L172.672 31.4346C180.815 41.0835 188.47 50.2083 195.432 58.5579C211.09 77.3389 231.392 102.004 239.225 112.878C254.713 134.347 262.177 156.265 261.417 178.043C260.826 194.957 255.821 211.449 246.932 225.727C238.516 239.259 226.793 250.584 212.98 258.557C205.273 254.711 194.081 248.384 182.195 239.178C191.778 220.079 193.734 199.401 187.998 177.674H187.991ZM156.77 243.113C147.985 254.496 137.531 261.901 131.433 265.622C130.444 265.26 129.455 264.884 128.48 264.485L127.698 264.175C109.633 256.711 94.3953 244.095 83.6317 227.676C72.6318 210.896 67.1835 191.391 67.8848 171.266C68.3868 156.841 71.9821 143.058 78.582 130.294C82.4135 129.445 86.3189 128.913 90.2242 128.714L91.2356 128.692C93.2067 128.647 95.1705 128.647 97.0383 128.692C99.7845 128.817 102.538 129.105 105.248 129.541C106.133 147.879 110.637 167.664 118.647 188.364C126.361 208.29 139.178 226.694 156.763 243.105L156.77 243.113Z"/>
</svg>
